# Blender 4.2.2 LTS
# www.blender.org
mtllib shortsword.mtl
o Cube
v 0.000000 1.000000 -5.094794
v 0.000000 0.800000 -5.094794
v -1.000000 1.000000 -4.094794
v -1.000000 0.800000 -4.094794
v -1.000000 1.000000 0.905206
v 1.000000 0.800000 0.905206
v 1.000000 0.800000 -4.094794
v 1.000000 0.800000 -4.094794
v 1.000000 1.000000 -4.094794
v 1.000000 1.000000 -4.094794
v -1.000000 0.800000 -4.094794
v -1.000000 0.800000 0.905206
v 1.000000 1.000000 0.905206
v 1.000000 1.000000 -4.094794
v 0.000000 1.000000 -5.094794
v 0.000000 1.039900 -4.194794
v 0.000000 0.751920 -4.194794
v -0.700000 0.751920 0.905206
v -0.700000 1.039900 -3.494794
v -0.700000 0.751920 -3.494794
v -0.700000 1.039900 0.905206
v 0.700000 0.751920 0.905206
v 0.700000 0.751920 -3.494794
v 0.700000 0.751920 -3.494794
v 0.700000 1.039900 -3.494794
v 0.700000 1.039900 -3.494794
v -0.700000 0.751920 -3.494794
v -0.700000 0.751920 0.905206
v 0.700000 1.039900 0.905206
v 0.700000 1.039900 -3.494794
v 0.000000 1.039900 -4.194794
v -0.700000 0.751920 0.905206
v 0.700000 0.751920 0.905206
v -0.997056 1.040000 0.910799
v -0.997056 0.751335 0.910799
v -0.997056 1.040000 1.206603
v -0.997056 0.751335 1.206603
v 0.994746 1.040000 0.910799
v 0.994746 0.751335 0.910799
v 0.994746 1.040000 1.206603
v 0.994746 0.751335 1.206603
v -0.001155 1.060000 1.206603
v -0.001155 0.731335 1.206603
v -0.001155 1.060000 0.910799
v -0.001155 0.731335 0.910799
vn 0.7071 -0.0000 -0.7071
vn -0.0000 -0.0000 1.0000
vn -0.7071 -0.0000 -0.7071
vn 0.0154 0.9999 -0.0021
vn -1.0000 -0.0000 -0.0000
vn -0.0154 0.9999 -0.0021
vn 1.0000 -0.0000 -0.0000
vn -0.0000 1.0000 -0.0000
vn -0.0000 -1.0000 -0.0000
vn 0.0442 -0.9980 0.0442
vn -0.0442 -0.9980 0.0442
vn -0.0000 -0.0000 -1.0000
vn 0.0201 0.9998 -0.0000
vn -0.0201 -0.9998 -0.0000
vn -0.1318 -0.9913 -0.0000
vn 0.0201 -0.9998 -0.0000
vn -0.0201 0.9998 -0.0000
vn 0.1318 -0.9913 -0.0000
vn -0.0533 0.9972 0.0533
vn 0.0533 0.9972 0.0533
vn 0.1582 0.9874 -0.0000
vn -0.1582 0.9874 -0.0000
vn -0.0158 0.9999 0.0022
vn 0.0158 0.9999 0.0022
vt 0.000000 0.000000
vt 0.375000 0.000000
vt 0.625000 0.000000
vt 0.625000 0.250000
vt 0.375000 0.250000
vt 0.375000 0.375000
vt 0.625000 0.375000
vt 0.625000 0.500000
vt 0.375000 0.500000
vt 0.625000 0.750000
vt 0.375000 0.750000
vt 0.375000 0.875000
vt 0.625000 0.875000
vt 0.625000 1.000000
vt 0.375000 1.000000
vt 0.250000 0.500000
vt 0.250000 0.750000
vt 0.750000 0.500000
vt 0.875000 0.500000
vt 0.875000 0.750000
vt 0.750000 0.750000
vt 0.125000 0.500000
vt 0.125000 0.750000
s 0
usemtl Material
f 2/1/1 15/1/1 10/1/1 1/1/1 14/1/1 7/1/1
f 5/1/2 12/1/2 6/1/2 13/1/2
f 3/1/3 15/1/3 2/1/3 11/1/3
f 31/1/4 44/1/4 29/1/4 30/1/4
f 17/1/1 31/1/1 26/1/1 16/1/1 30/1/1 23/1/1
f 18/1/5 20/1/5 28/1/5 21/1/5 19/1/5 27/1/5
f 21/1/2 28/1/2 22/1/2 29/1/2
f 19/1/3 31/1/3 17/1/3 27/1/3
f 21/1/6 44/1/6 31/1/6 19/1/6
f 6/1/7 8/1/7 14/1/7 13/1/7
f 11/1/5 12/1/5 5/1/5 3/1/5
f 5/1/8 13/1/8 14/1/8 15/1/8 3/1/8
f 6/1/9 12/1/9 11/1/9 2/1/9 8/1/9
f 19/1/10 3/1/10 15/1/10 31/1/10
f 15/1/11 14/1/11 30/1/11 31/1/11
f 34/2/5 35/3/5 37/4/5 36/5/5
f 42/6/2 43/7/2 41/8/2 40/9/2
f 40/9/7 41/8/7 39/10/7 38/11/7
f 44/12/12 45/13/12 35/14/12 34/15/12
f 42/16/13 40/9/13 38/11/13 44/17/13
f 43/18/14 37/19/14 35/20/14 45/21/14
f 9/1/8 25/1/8 26/1/8 10/1/8
f 30/1/15 14/1/15 13/1/15 29/1/15
f 41/8/16 43/18/16 45/21/16 39/10/16
f 36/22/17 42/16/17 44/17/17 34/23/17
f 38/11/12 39/10/12 45/13/12 44/12/12
f 36/5/2 37/4/2 43/7/2 42/6/2
f 21/1/18 5/1/18 3/1/18 19/1/18
f 8/1/19 2/1/19 17/1/19 24/1/19
f 11/1/20 27/1/20 17/1/20 2/1/20
f 27/1/21 11/1/21 12/1/21 32/1/21
f 8/1/22 24/1/22 33/1/22 6/1/22
f 17/1/23 45/1/23 33/1/23 24/1/23
f 27/1/24 32/1/24 45/1/24 17/1/24
l 7 8
l 4 11
l 15 1
l 25 24
l 20 27
l 31 16
o Cube.001
v -1.901904 0.500000 1.707110
v -1.901904 0.598096 1.805206
v -2.000000 0.598096 1.707110
v -1.901904 0.528732 1.776474
v -1.958540 0.541460 1.763746
v -1.971268 0.598096 1.776474
v -1.971268 0.528732 1.707110
v -1.901904 1.201904 1.805206
v -1.901904 1.300000 1.707110
v -2.000000 1.201904 1.707110
v -1.901904 1.271268 1.776474
v -1.958540 1.258540 1.763746
v -1.971268 1.271268 1.707110
v -1.971268 1.201904 1.776474
v -1.901904 0.500000 1.103302
v -2.000000 0.598096 1.103302
v -1.901904 0.598096 1.005206
v -1.971268 0.528732 1.103302
v -1.958540 0.541460 1.046666
v -1.971268 0.598096 1.033938
v -1.901904 0.528732 1.033938
v -1.901904 1.300000 1.103302
v -1.901904 1.201904 1.005206
v -2.000000 1.201904 1.103302
v -1.901904 1.271268 1.033938
v -1.958540 1.258540 1.046666
v -1.971268 1.201904 1.033938
v -1.971268 1.271268 1.103302
v 1.901904 0.500000 1.707110
v 2.000000 0.598096 1.707110
v 1.901904 0.598096 1.805206
v 1.971268 0.528732 1.707110
v 1.958540 0.541460 1.763746
v 1.971268 0.598096 1.776474
v 1.901904 0.528732 1.776474
v 1.901904 1.300000 1.707110
v 1.901904 1.201904 1.805206
v 2.000000 1.201904 1.707110
v 1.901904 1.271268 1.776474
v 1.958540 1.258540 1.763746
v 1.971268 1.201904 1.776474
v 1.971268 1.271268 1.707110
v 1.901904 0.500000 1.103302
v 1.901904 0.598096 1.005206
v 2.000000 0.598096 1.103302
v 1.901904 0.528732 1.033938
v 1.958540 0.541460 1.046666
v 1.971268 0.598096 1.033938
v 1.971268 0.528732 1.103302
v 1.901904 1.300000 1.103302
v 2.000000 1.201904 1.103302
v 1.901904 1.201904 1.005206
v 1.971268 1.271268 1.103302
v 1.958540 1.258540 1.046666
v 1.971268 1.201904 1.033938
v 1.901904 1.271268 1.033938
vn -0.0000 -0.0000 1.0000
vn 1.0000 -0.0000 -0.0000
vn -0.0000 1.0000 -0.0000
vn -1.0000 -0.0000 -0.0000
vn -0.0000 -0.0000 -1.0000
vn -0.3251 -0.8881 0.3251
vn -0.3251 -0.3251 0.8881
vn -0.8881 -0.3251 0.3251
vn -0.3251 0.3251 0.8881
vn -0.3251 0.8881 0.3251
vn -0.8881 0.3251 0.3251
vn -0.3251 -0.8881 -0.3251
vn -0.8881 -0.3251 -0.3251
vn -0.3251 -0.3251 -0.8881
vn -0.3251 0.8881 -0.3251
vn -0.3251 0.3251 -0.8881
vn -0.8881 0.3251 -0.3251
vn 0.3251 -0.8881 0.3251
vn 0.8881 -0.3251 0.3251
vn 0.3251 -0.3251 0.8881
vn 0.3251 0.8881 0.3251
vn 0.3251 0.3251 0.8881
vn 0.8881 0.3251 0.3251
vn 0.3251 -0.8881 -0.3251
vn 0.3251 -0.3251 -0.8881
vn 0.8881 -0.3251 -0.3251
vn 0.3251 0.8881 -0.3251
vn 0.8881 0.3251 -0.3251
vn 0.3251 0.3251 -0.8881
vn -0.3827 -0.9239 -0.0000
vn -0.9239 -0.3827 -0.0000
vn -0.3827 -0.0000 0.9239
vn -0.9239 -0.0000 0.3827
vn -0.3827 0.9239 -0.0000
vn -0.9239 0.3827 -0.0000
vn -0.3827 -0.0000 -0.9239
vn -0.9239 -0.0000 -0.3827
vn -0.0000 -0.9239 -0.3827
vn -0.0000 -0.3827 -0.9239
vn -0.0000 0.9239 -0.3827
vn -0.0000 0.3827 -0.9239
vn 0.9239 -0.0000 -0.3827
vn 0.3827 -0.0000 -0.9239
vn 0.3827 -0.9239 -0.0000
vn 0.9239 -0.3827 -0.0000
vn 0.3827 0.9239 -0.0000
vn 0.9239 0.3827 -0.0000
vn 0.3827 -0.0000 0.9239
vn 0.9239 -0.0000 0.3827
vn -0.0000 -0.9239 0.3827
vn -0.0000 -0.3827 0.9239
vn -0.0000 0.9239 0.3827
vn -0.0000 0.3827 0.9239
vn -0.0000 -1.0000 -0.0000
vt 0.405655 0.756131
vt 0.594345 0.756131
vt 0.594345 0.993869
vt 0.405655 0.993869
vt 0.405655 0.530655
vt 0.594345 0.530655
vt 0.594345 0.719345
vt 0.405655 0.719345
vt 0.631131 0.530655
vt 0.868869 0.530655
vt 0.868869 0.719345
vt 0.631131 0.719345
vt 0.405655 0.030655
vt 0.594345 0.030655
vt 0.594345 0.219345
vt 0.405655 0.219345
vt 0.405655 0.256131
vt 0.594345 0.256131
vt 0.594345 0.493869
vt 0.405655 0.493869
vt 0.131131 0.719345
vt 0.131131 0.750000
vt 0.127591 0.750000
vt 0.125000 0.719345
vt 0.405655 1.000000
vt 0.387956 1.000000
vt 0.375000 0.993869
vt 0.375000 0.030655
vt 0.375000 0.012956
vt 0.405655 0.000000
vt 0.625000 0.993869
vt 0.625000 0.997409
vt 0.594345 1.000000
vt 0.875000 0.719345
vt 0.875000 0.737044
vt 0.868869 0.750000
vt 0.594345 0.000000
vt 0.612044 0.000000
vt 0.625000 0.030655
vt 0.131131 0.530655
vt 0.125000 0.530655
vt 0.125000 0.512956
vt 0.131131 0.500000
vt 0.405655 0.250000
vt 0.387956 0.250000
vt 0.375000 0.219345
vt 0.375000 0.256131
vt 0.375000 0.252591
vt 0.868869 0.500000
vt 0.872409 0.500000
vt 0.875000 0.530655
vt 0.594345 0.250000
vt 0.612044 0.250000
vt 0.625000 0.256131
vt 0.625000 0.219345
vt 0.625000 0.237044
vt 0.594345 0.250000
vt 0.368869 0.719345
vt 0.375000 0.719345
vt 0.379319 0.746545
vt 0.368869 0.750000
vt 0.405655 0.750000
vt 0.375000 0.756131
vt 0.631131 0.750000
vt 0.621545 0.745681
vt 0.625000 0.719345
vt 0.594345 0.750000
vt 0.625000 0.756131
vt 0.594345 0.750000
vt 0.368869 0.530655
vt 0.368869 0.500000
vt 0.378455 0.504319
vt 0.375000 0.530655
vt 0.405655 0.500000
vt 0.375000 0.493869
vt 0.625000 0.530655
vt 0.620681 0.503455
vt 0.631131 0.500000
vt 0.594345 0.500000
vt 0.625000 0.530655
vt 0.625000 0.493869
vt 0.594345 0.500000
s 0
usemtl Material.001
f 76/24/25 82/25/25 53/26/25 47/27/25
f 90/28/26 96/29/26 83/30/26 75/31/26
f 95/32/27 67/33/27 54/34/27 81/35/27
f 48/36/28 55/37/28 69/38/28 61/39/28
f 62/40/29 68/41/29 97/42/29 89/43/29
f 46/44/30 49/45/30 50/46/30 52/47/30
f 47/27/31 51/48/31 50/49/31 49/50/31
f 48/36/32 52/51/32 50/52/32 51/53/32
f 53/26/33 56/54/33 57/55/33 59/56/33
f 54/34/34 58/57/34 57/58/34 56/59/34
f 55/37/35 59/60/35 57/61/35 58/62/35
f 60/63/36 63/64/36 64/65/36 66/66/36
f 61/39/37 65/67/37 64/68/37 63/69/37
f 62/40/38 66/70/38 64/71/38 65/67/38
f 67/33/39 70/72/39 71/73/39 73/74/39
f 68/41/40 72/75/40 71/76/40 70/77/40
f 69/38/41 73/78/41 71/79/41 72/80/41
f 74/81/42 77/82/42 78/83/42 80/84/42
f 75/31/43 79/85/43 78/83/43 77/82/43
f 76/24/44 80/86/44 78/83/44 79/85/44
f 81/35/45 84/87/45 85/88/45 87/89/45
f 82/25/46 86/90/46 85/88/46 84/91/46
f 83/30/47 87/89/47 85/88/47 86/92/47
f 88/93/48 91/94/48 92/95/48 94/96/48
f 89/43/49 93/97/49 92/95/49 91/98/49
f 90/28/50 94/96/50 92/95/50 93/97/50
f 95/32/51 98/99/51 99/100/51 101/101/51
f 96/29/52 100/102/52 99/100/52 98/103/52
f 97/42/53 101/104/53 99/100/53 100/105/53
f 60/63/54 46/44/54 52/47/54 63/64/54
f 63/69/55 52/51/55 48/36/55 61/39/55
f 47/27/56 53/26/56 59/56/56 51/48/56
f 51/53/57 59/60/57 55/37/57 48/36/57
f 54/34/58 67/33/58 73/74/58 58/57/58
f 58/62/59 73/78/59 69/38/59 55/37/59
f 68/41/60 62/40/60 65/67/60 72/75/60
f 72/75/61 65/67/61 61/39/61 69/38/61
f 88/93/62 60/63/62 66/66/62 91/94/62
f 91/98/63 66/70/63 62/40/63 89/43/63
f 67/33/64 95/32/64 101/101/64 70/72/64
f 70/77/65 101/104/65 97/42/65 68/41/65
f 96/29/66 90/28/66 93/97/66 100/102/66
f 100/102/67 93/97/67 89/43/67 97/42/67
f 74/81/68 88/93/68 94/96/68 77/82/68
f 77/82/69 94/96/69 90/28/69 75/31/69
f 95/32/70 81/35/70 87/89/70 98/99/70
f 98/99/71 87/89/71 83/30/71 96/29/71
f 82/25/72 76/24/72 79/85/72 86/90/72
f 86/90/73 79/85/73 75/31/73 83/30/73
f 46/44/74 74/81/74 80/84/74 49/45/74
f 49/50/75 80/86/75 76/24/75 47/27/75
f 81/35/76 54/34/76 56/59/76 84/87/76
f 84/91/77 56/54/77 53/26/77 82/25/77
f 60/63/78 88/93/78 74/81/78 46/44/78
o Cylinder
v 0.000000 0.615129 3.876498
v 0.000000 0.615129 1.776498
v 0.058527 0.620894 3.876498
v 0.058527 0.620894 1.776498
v 0.114805 0.637965 3.876498
v 0.114805 0.637966 1.776498
v 0.166671 0.665688 3.876498
v 0.166671 0.665689 1.776498
v 0.212132 0.702997 3.876498
v 0.212132 0.702997 1.776498
v 0.249441 0.748458 3.876498
v 0.749441 0.748458 1.776498
v 0.277164 0.800324 3.876498
v 0.777164 0.800324 1.776498
v 0.294236 0.856602 3.876498
v 0.794236 0.856602 1.776498
v 0.300000 0.915129 3.876498
v 0.800000 0.915129 1.776498
v 0.294236 0.973656 3.876498
v 0.794236 0.973657 1.776498
v 0.277164 1.029934 3.876498
v 0.777164 1.029935 1.776498
v 0.249441 1.081800 3.876498
v 0.749441 1.081800 1.776498
v 0.212132 1.127261 3.876498
v 0.212132 1.127261 1.776498
v 0.166671 1.164570 3.876498
v 0.166671 1.164570 1.776498
v 0.114805 1.192293 3.876498
v 0.114805 1.192293 1.776498
v 0.058527 1.209365 3.876498
v 0.058527 1.209365 1.776498
v 0.000000 1.215129 3.876498
v 0.000000 1.215129 1.776498
v -0.058527 1.209365 3.876498
v -0.058527 1.209365 1.776498
v -0.114805 1.192293 3.876498
v -0.114805 1.192293 1.776498
v -0.166671 1.164570 3.876498
v -0.166671 1.164570 1.776498
v -0.212132 1.127261 3.876498
v -0.212132 1.127261 1.776498
v -0.249441 1.081800 3.876498
v -0.749441 1.081800 1.776498
v -0.277164 1.029934 3.876498
v -0.777164 1.029935 1.776498
v -0.294236 0.973656 3.876498
v -0.794236 0.973657 1.776498
v -0.300000 0.915129 3.876498
v -0.800000 0.915129 1.776498
v -0.294236 0.856602 3.876498
v -0.794236 0.856602 1.776498
v -0.277164 0.800324 3.876498
v -0.777164 0.800324 1.776498
v -0.249441 0.748458 3.876498
v -0.749441 0.748458 1.776498
v -0.212132 0.702997 3.876498
v -0.212132 0.702997 1.776498
v -0.166671 0.665688 3.876498
v -0.166671 0.665689 1.776498
v -0.114805 0.637965 3.876498
v -0.114805 0.637966 1.776498
v -0.058527 0.620894 3.876498
v -0.058527 0.620894 1.776498
v 0.000000 0.615129 2.826498
v 0.058527 0.620894 2.826498
v 0.114805 0.637966 2.826498
v 0.166671 0.665689 2.826498
v 0.212132 0.702997 2.826498
v 0.399441 0.748458 2.826498
v 0.427164 0.800324 2.826498
v 0.444236 0.856602 2.826498
v 0.450000 0.915129 2.826498
v 0.444236 0.973656 2.826498
v 0.427164 1.029934 2.826498
v 0.399441 1.081800 2.826498
v 0.212132 1.127261 2.826498
v 0.166671 1.164570 2.826498
v 0.114805 1.192293 2.826498
v 0.058527 1.209365 2.826498
v 0.000000 1.215129 2.826498
v -0.058527 1.209365 2.826498
v -0.114805 1.192293 2.826498
v -0.166671 1.164570 2.826498
v -0.212132 1.127261 2.826498
v -0.399441 1.081800 2.826498
v -0.427164 1.029934 2.826498
v -0.444236 0.973656 2.826498
v -0.450000 0.915129 2.826498
v -0.444236 0.856602 2.826498
v -0.427164 0.800324 2.826498
v -0.399441 0.748458 2.826498
v -0.212132 0.702997 2.826498
v -0.166671 0.665689 2.826498
v -0.114805 0.637966 2.826498
v -0.058527 0.620894 2.826498
vn 0.0980 -0.9952 -0.0000
vn 0.2903 -0.9569 -0.0000
vn 0.4714 -0.8819 -0.0000
vn 0.6344 -0.7730 -0.0000
vn 0.1245 -0.9920 0.0207
vn 0.8461 -0.4523 0.2820
vn 0.9117 -0.2766 0.3039
vn 0.9446 -0.0930 0.3149
vn 0.9446 0.0930 0.3149
vn 0.9117 0.2766 0.3039
vn 0.8461 0.4523 0.2820
vn 0.1245 0.9920 0.0207
vn 0.6344 0.7730 -0.0000
vn 0.4714 0.8819 -0.0000
vn 0.2903 0.9569 -0.0000
vn 0.0980 0.9952 -0.0000
vn -0.0980 0.9952 -0.0000
vn -0.2903 0.9569 -0.0000
vn -0.4714 0.8819 -0.0000
vn -0.6344 0.7730 -0.0000
vn -0.1245 0.9920 0.0207
vn -0.8461 0.4523 0.2820
vn -0.9117 0.2766 0.3039
vn -0.9446 0.0930 0.3149
vn -0.9446 -0.0930 0.3149
vn -0.9117 -0.2766 0.3039
vn -0.8461 -0.4523 0.2820
vn -0.1245 -0.9920 0.0207
vn -0.6344 -0.7730 -0.0000
vn -0.4714 -0.8819 -0.0000
vn -0.0000 -0.0000 -1.0000
vn -0.2903 -0.9569 -0.0000
vn -0.0980 -0.9952 -0.0000
vn -0.0000 -0.0000 1.0000
vn -0.3751 -0.9266 0.0268
vn -0.8750 -0.4677 0.1250
vn -0.9481 -0.2876 0.1354
vn -0.9853 -0.0970 0.1408
vn -0.9853 0.0970 0.1408
vn -0.9481 0.2876 0.1354
vn -0.8750 0.4677 0.1250
vn -0.3751 0.9266 0.0268
vn 0.3751 0.9266 0.0268
vn 0.8750 0.4677 0.1250
vn 0.9481 0.2876 0.1354
vn 0.9853 0.0970 0.1408
vn 0.9853 -0.0970 0.1408
vn 0.9481 -0.2876 0.1354
vn 0.8750 -0.4677 0.1250
vn 0.3751 -0.9266 0.0268
vn -0.1933 -0.9811 -0.0080
vn -0.1933 0.9811 0.0080
vn -0.3505 -0.9366 -0.0039
vn 0.3505 -0.9366 -0.0039
vn 0.1933 -0.9811 0.0080
vn 0.1933 0.9811 -0.0080
vn 0.3505 0.9366 -0.0039
vn 0.7035 0.7035 -0.1005
vn 0.7035 -0.7035 -0.1005
vn -0.7035 -0.7035 -0.1005
vn -0.3505 0.9366 -0.0039
vn -0.7035 0.7035 -0.1005
vt 1.000000 0.750000
vt 1.000000 1.000000
vt 0.968750 1.000000
vt 0.968750 0.750000
vt 0.937500 1.000000
vt 0.937500 0.750000
vt 0.906250 1.000000
vt 0.906250 0.750000
vt 0.875000 1.000000
vt 0.875000 0.750000
vt 0.843750 1.000000
vt 0.843750 0.750000
vt 0.812500 1.000000
vt 0.812500 0.750000
vt 0.781250 1.000000
vt 0.781250 0.750000
vt 0.750000 1.000000
vt 0.750000 0.750000
vt 0.718750 1.000000
vt 0.718750 0.750000
vt 0.687500 1.000000
vt 0.687500 0.750000
vt 0.656250 1.000000
vt 0.656250 0.750000
vt 0.625000 1.000000
vt 0.625000 0.750000
vt 0.593750 1.000000
vt 0.593750 0.750000
vt 0.562500 1.000000
vt 0.562500 0.750000
vt 0.531250 1.000000
vt 0.531250 0.750000
vt 0.500000 1.000000
vt 0.500000 0.750000
vt 0.468750 1.000000
vt 0.468750 0.750000
vt 0.437500 1.000000
vt 0.437500 0.750000
vt 0.406250 1.000000
vt 0.406250 0.750000
vt 0.375000 1.000000
vt 0.375000 0.750000
vt 0.343750 1.000000
vt 0.343750 0.750000
vt 0.312500 1.000000
vt 0.312500 0.750000
vt 0.281250 1.000000
vt 0.281250 0.750000
vt 0.250000 1.000000
vt 0.250000 0.750000
vt 0.218750 1.000000
vt 0.218750 0.750000
vt 0.187500 1.000000
vt 0.187500 0.750000
vt 0.156250 1.000000
vt 0.156250 0.750000
vt 0.125000 1.000000
vt 0.125000 0.750000
vt 0.093750 1.000000
vt 0.093750 0.750000
vt 0.062500 1.000000
vt 0.062500 0.750000
vt 0.296822 0.485388
vt 0.250000 0.490000
vt 0.203178 0.485388
vt 0.158156 0.471731
vt 0.116663 0.449553
vt 0.080294 0.419706
vt 0.050447 0.383337
vt 0.028269 0.341844
vt 0.014612 0.296822
vt 0.010000 0.250000
vt 0.014612 0.203178
vt 0.028269 0.158156
vt 0.050447 0.116663
vt 0.080294 0.080294
vt 0.116663 0.050447
vt 0.158156 0.028269
vt 0.203178 0.014612
vt 0.250000 0.010000
vt 0.296822 0.014612
vt 0.341844 0.028269
vt 0.383337 0.050447
vt 0.419706 0.080294
vt 0.449553 0.116663
vt 0.471731 0.158156
vt 0.485388 0.203178
vt 0.490000 0.250000
vt 0.485388 0.296822
vt 0.471731 0.341844
vt 0.449553 0.383337
vt 0.419706 0.419706
vt 0.383337 0.449553
vt 0.341844 0.471731
vt 0.031250 1.000000
vt 0.031250 0.750000
vt 0.000000 1.000000
vt 0.000000 0.750000
vt 0.750000 0.490000
vt 0.796822 0.485388
vt 0.841844 0.471731
vt 0.883337 0.449553
vt 0.919706 0.419706
vt 0.949553 0.383337
vt 0.971731 0.341844
vt 0.985388 0.296822
vt 0.990000 0.250000
vt 0.985388 0.203178
vt 0.971731 0.158156
vt 0.949553 0.116663
vt 0.919706 0.080294
vt 0.883337 0.050447
vt 0.841844 0.028269
vt 0.796822 0.014612
vt 0.750000 0.010000
vt 0.703178 0.014612
vt 0.658156 0.028269
vt 0.616663 0.050447
vt 0.580294 0.080294
vt 0.550447 0.116663
vt 0.528269 0.158156
vt 0.514612 0.203178
vt 0.510000 0.250000
vt 0.514612 0.296822
vt 0.528269 0.341844
vt 0.550447 0.383337
vt 0.580294 0.419706
vt 0.616663 0.449553
vt 0.658156 0.471731
vt 0.703178 0.485388
vt 0.031250 0.500000
vt 0.000000 0.500000
vt 0.062500 0.500000
vt 0.093750 0.500000
vt 0.125000 0.500000
vt 0.156250 0.500000
vt 0.187500 0.500000
vt 0.218750 0.500000
vt 0.250000 0.500000
vt 0.281250 0.500000
vt 0.312500 0.500000
vt 0.343750 0.500000
vt 0.375000 0.500000
vt 0.406250 0.500000
vt 0.437500 0.500000
vt 0.468750 0.500000
vt 0.500000 0.500000
vt 0.531250 0.500000
vt 0.562500 0.500000
vt 0.593750 0.500000
vt 0.625000 0.500000
vt 0.656250 0.500000
vt 0.687500 0.500000
vt 0.718750 0.500000
vt 0.750000 0.500000
vt 0.781250 0.500000
vt 0.812500 0.500000
vt 0.843750 0.500000
vt 0.875000 0.500000
vt 0.906250 0.500000
vt 0.937500 0.500000
vt 0.968750 0.500000
vt 1.000000 0.500000
vt 0.000000 0.000000
s 0
usemtl Material.002
f 166/106/79 103/107/79 105/108/79 167/109/79
f 167/109/80 105/108/80 107/110/80 168/111/80
f 168/111/81 107/110/81 109/112/81 169/113/81
f 169/113/82 109/112/82 111/114/82 170/115/82
f 170/115/83 111/114/83 113/116/83 171/117/83
f 171/117/84 113/116/84 115/118/84 172/119/84
f 172/119/85 115/118/85 117/120/85 173/121/85
f 173/121/86 117/120/86 119/122/86 174/123/86
f 174/123/87 119/122/87 121/124/87 175/125/87
f 175/125/88 121/124/88 123/126/88 176/127/88
f 176/127/89 123/126/89 125/128/89 177/129/89
f 177/129/90 125/128/90 127/130/90 178/131/90
f 178/131/91 127/130/91 129/132/91 179/133/91
f 179/133/92 129/132/92 131/134/92 180/135/92
f 180/135/93 131/134/93 133/136/93 181/137/93
f 181/137/94 133/136/94 135/138/94 182/139/94
f 182/139/95 135/138/95 137/140/95 183/141/95
f 183/141/96 137/140/96 139/142/96 184/143/96
f 184/143/97 139/142/97 141/144/97 185/145/97
f 185/145/98 141/144/98 143/146/98 186/147/98
f 186/147/99 143/146/99 145/148/99 187/149/99
f 187/149/100 145/148/100 147/150/100 188/151/100
f 188/151/101 147/150/101 149/152/101 189/153/101
f 189/153/102 149/152/102 151/154/102 190/155/102
f 190/155/103 151/154/103 153/156/103 191/157/103
f 191/157/104 153/156/104 155/158/104 192/159/104
f 192/159/105 155/158/105 157/160/105 193/161/105
f 193/161/106 157/160/106 159/162/106 194/163/106
f 194/163/107 159/162/107 161/164/107 195/165/107
f 195/165/108 161/164/108 163/166/108 196/167/108
f 105/168/109 103/169/109 165/170/109 163/171/109 161/172/109 159/173/109 157/174/109 155/175/109 153/176/109 151/177/109 149/178/109 147/179/109 145/180/109 143/181/109 141/182/109 139/183/109 137/184/109 135/185/109 133/186/109 131/187/109 129/188/109 127/189/109 125/190/109 123/191/109 121/192/109 119/193/109 117/194/109 115/195/109 113/196/109 111/197/109 109/198/109 107/199/109
f 196/167/110 163/166/110 165/200/110 197/201/110
f 197/201/111 165/200/111 103/202/111 166/203/111
f 102/204/112 104/205/112 106/206/112 108/207/112 110/208/112 112/209/112 114/210/112 116/211/112 118/212/112 120/213/112 122/214/112 124/215/112 126/216/112 128/217/112 130/218/112 132/219/112 134/220/112 136/221/112 138/222/112 140/223/112 142/224/112 144/225/112 146/226/112 148/227/112 150/228/112 152/229/112 154/230/112 156/231/112 158/232/112 160/233/112 162/234/112 164/235/112
f 164/236/111 197/201/111 166/203/111 102/237/111
f 162/238/110 196/167/110 197/201/110 164/236/110
f 160/239/108 195/165/108 196/167/108 162/238/108
f 158/240/107 194/163/107 195/165/107 160/239/107
f 156/241/113 193/161/113 194/163/113 158/240/113
f 154/242/114 192/159/114 193/161/114 156/241/114
f 152/243/115 191/157/115 192/159/115 154/242/115
f 150/244/116 190/155/116 191/157/116 152/243/116
f 148/245/117 189/153/117 190/155/117 150/244/117
f 146/246/118 188/151/118 189/153/118 148/245/118
f 144/247/119 187/149/119 188/151/119 146/246/119
f 142/248/120 186/147/120 187/149/120 144/247/120
f 140/249/98 185/145/98 186/147/98 142/248/98
f 138/250/97 184/143/97 185/145/97 140/249/97
f 136/251/96 183/141/96 184/143/96 138/250/96
f 134/252/95 182/139/95 183/141/95 136/251/95
f 132/253/94 181/137/94 182/139/94 134/252/94
f 130/254/93 180/135/93 181/137/93 132/253/93
f 128/255/92 179/133/92 180/135/92 130/254/92
f 126/256/91 178/131/91 179/133/91 128/255/91
f 124/257/121 177/129/121 178/131/121 126/256/121
f 122/258/122 176/127/122 177/129/122 124/257/122
f 120/259/123 175/125/123 176/127/123 122/258/123
f 118/260/124 174/123/124 175/125/124 120/259/124
f 116/261/125 173/121/125 174/123/125 118/260/125
f 114/262/126 172/119/126 173/121/126 116/261/126
f 112/263/127 171/117/127 172/119/127 114/262/127
f 110/264/128 170/115/128 171/117/128 112/263/128
f 108/265/82 169/113/82 170/115/82 110/264/82
f 106/266/81 168/111/81 169/113/81 108/265/81
f 104/267/80 167/109/80 168/111/80 106/266/80
f 102/268/79 166/106/79 167/109/79 104/267/79
f 181/269/129 127/269/129 125/269/129 177/269/129
f 145/269/130 187/269/130 183/269/130 143/269/130
f 178/131/112 177/129/112 181/269/112
f 187/149/112 186/147/112 183/269/112
f 128/269/131 181/269/131 177/269/131
f 183/269/132 140/269/132 187/269/132
f 113/269/133 171/269/133 167/269/133 111/269/133
f 197/269/134 159/269/134 157/269/134 193/269/134
f 171/117/112 170/115/112 167/269/112
f 194/163/112 193/161/112 197/269/112
f 160/269/135 197/269/135 193/269/135
f 160/269/136 193/269/136 156/241/136
f 187/269/137 140/269/137 144/247/137
f 128/269/138 177/269/138 124/257/138
f 167/269/139 108/269/139 171/269/139
f 171/269/140 108/269/140 112/263/140
